<svg width="40" height="39" viewBox="0 0 40 39" fill="none" xmlns="http://www.w3.org/2000/svg">
<path d="M20 0C8.95 0 0 8.8 0 19.6533C0 28.3383 5.73 35.7033 13.675 38.3C14.675 38.485 15.0417 37.8767 15.0417 37.355C15.0417 36.8883 15.025 35.6517 15.0167 34.0133C9.45333 35.1983 8.28 31.3767 8.28 31.3767C7.37 29.1083 6.055 28.5017 6.055 28.5017C4.24333 27.2833 6.195 27.3083 6.195 27.3083C8.20333 27.445 9.25833 29.3333 9.25833 29.3333C11.0417 32.3383 13.94 31.47 15.0833 30.9683C15.2633 29.6967 15.7783 28.8317 16.35 28.34C11.9083 27.8483 7.24 26.1583 7.24 18.6283C7.24 16.4833 8.015 14.73 9.29833 13.355C9.07333 12.8583 8.39833 10.86 9.47333 8.15333C9.47333 8.15333 11.1483 7.62667 14.9733 10.1683C16.5733 9.73167 18.2733 9.515 19.9733 9.505C21.6733 9.515 23.3733 9.73167 24.9733 10.1683C28.7733 7.62667 30.4483 8.15333 30.4483 8.15333C31.5233 10.86 30.8483 12.8583 30.6483 13.355C31.9233 14.73 32.6983 16.4833 32.6983 18.6283C32.6983 26.1783 28.0233 27.84 23.5733 28.3233C24.2733 28.9133 24.9233 30.1183 24.9233 31.96C24.9233 34.59 24.8983 36.7033 24.8983 37.3417C24.8983 37.8567 25.2483 38.4717 26.2733 38.275C34.275 35.695 40 28.325 40 19.6533C40 8.8 31.045 0 20 0Z" fill="#FAFAFA"/>
</svg>
