<svg width="350" height="235" viewBox="0 0 350 235" fill="none" xmlns="http://www.w3.org/2000/svg">
<circle cx="117.5" cy="117.5" r="117.5" fill="url(#paint0_linear)"/>
<g filter="url(#filter0_d)">
<path d="M159.5 109.206C165.5 112.67 165.5 121.33 159.5 124.794L104 156.837C98 160.301 90.5 155.971 90.5 149.043L90.5 84.9571C90.5 78.0289 98 73.6987 104 77.1628L159.5 109.206Z" fill="#FAFAFA"/>
</g>
<path d="M380.103 130.04L398.979 67.952H427.371L396.483 155H363.567L332.679 67.952H361.227L380.103 130.04ZM468.551 156.248C460.959 156.248 454.199 154.948 448.271 152.348C442.343 149.748 437.663 146.212 434.231 141.74C430.799 137.164 428.875 132.068 428.459 126.452H454.823C455.135 129.468 456.539 131.912 459.035 133.784C461.531 135.656 464.599 136.592 468.239 136.592C471.567 136.592 474.115 135.968 475.883 134.72C477.755 133.368 478.691 131.652 478.691 129.572C478.691 127.076 477.391 125.256 474.791 124.112C472.191 122.864 467.979 121.512 462.155 120.056C455.915 118.6 450.715 117.092 446.555 115.532C442.395 113.868 438.807 111.32 435.791 107.888C432.775 104.352 431.267 99.62 431.267 93.692C431.267 88.7 432.619 84.176 435.323 80.12C438.131 75.96 442.187 72.684 447.491 70.292C452.899 67.9 459.295 66.704 466.679 66.704C477.599 66.704 486.179 69.408 492.419 74.816C498.763 80.224 502.403 87.4 503.339 96.344H478.691C478.275 93.328 476.923 90.936 474.635 89.168C472.451 87.4 469.539 86.516 465.899 86.516C462.779 86.516 460.387 87.14 458.723 88.388C457.059 89.532 456.227 91.144 456.227 93.224C456.227 95.72 457.527 97.592 460.127 98.84C462.831 100.088 466.991 101.336 472.607 102.584C479.055 104.248 484.307 105.912 488.363 107.576C492.419 109.136 495.955 111.736 498.971 115.376C502.091 118.912 503.703 123.696 503.807 129.728C503.807 134.824 502.351 139.4 499.439 143.456C496.631 147.408 492.523 150.528 487.115 152.816C481.811 155.104 475.623 156.248 468.551 156.248ZM509.363 111.476C509.363 102.428 511.183 94.524 514.823 87.764C518.567 81.004 523.715 75.804 530.267 72.164C536.923 68.524 544.515 66.704 553.043 66.704C563.963 66.704 573.063 69.564 580.343 75.284C587.727 81.004 592.563 89.064 594.851 99.464H566.459C564.067 92.808 559.439 89.48 552.575 89.48C547.687 89.48 543.787 91.404 540.875 95.252C537.963 98.996 536.507 104.404 536.507 111.476C536.507 118.548 537.963 124.008 540.875 127.856C543.787 131.6 547.687 133.472 552.575 133.472C559.439 133.472 564.067 130.144 566.459 123.488H594.851C592.563 133.68 587.727 141.688 580.343 147.512C572.959 153.336 563.859 156.248 553.043 156.248C544.515 156.248 536.923 154.428 530.267 150.788C523.715 147.148 518.567 141.948 514.823 135.188C511.183 128.428 509.363 120.524 509.363 111.476ZM643.284 156.248C634.756 156.248 627.06 154.428 620.196 150.788C613.436 147.148 608.08 141.948 604.128 135.188C600.28 128.428 598.356 120.524 598.356 111.476C598.356 102.532 600.332 94.68 604.284 87.92C608.236 81.056 613.644 75.804 620.508 72.164C627.372 68.524 635.068 66.704 643.596 66.704C652.124 66.704 659.82 68.524 666.684 72.164C673.548 75.804 678.956 81.056 682.908 87.92C686.86 94.68 688.836 102.532 688.836 111.476C688.836 120.42 686.808 128.324 682.752 135.188C678.8 141.948 673.34 147.148 666.372 150.788C659.508 154.428 651.812 156.248 643.284 156.248ZM643.284 133.16C648.38 133.16 652.696 131.288 656.232 127.544C659.872 123.8 661.692 118.444 661.692 111.476C661.692 104.508 659.924 99.152 656.388 95.408C652.956 91.664 648.692 89.792 643.596 89.792C638.396 89.792 634.08 91.664 630.648 95.408C627.216 99.048 625.5 104.404 625.5 111.476C625.5 118.444 627.164 123.8 630.492 127.544C633.924 131.288 638.188 133.16 643.284 133.16ZM692.224 111.32C692.224 102.376 693.888 94.524 697.216 87.764C700.648 81.004 705.276 75.804 711.1 72.164C716.924 68.524 723.424 66.704 730.6 66.704C736.32 66.704 741.52 67.9 746.2 70.292C750.984 72.684 754.728 75.908 757.432 79.964V39.56H784.108V155H757.432V142.52C754.936 146.68 751.348 150.008 746.668 152.504C742.092 155 736.736 156.248 730.6 156.248C723.424 156.248 716.924 154.428 711.1 150.788C705.276 147.044 700.648 141.792 697.216 135.032C693.888 128.168 692.224 120.264 692.224 111.32ZM757.432 111.476C757.432 104.82 755.56 99.568 751.816 95.72C748.176 91.872 743.704 89.948 738.4 89.948C733.096 89.948 728.572 91.872 724.828 95.72C721.188 99.464 719.368 104.664 719.368 111.32C719.368 117.976 721.188 123.28 724.828 127.232C728.572 131.08 733.096 133.004 738.4 133.004C743.704 133.004 748.176 131.08 751.816 127.232C755.56 123.384 757.432 118.132 757.432 111.476ZM880.003 110.072C880.003 112.568 879.847 115.168 879.535 117.872H819.163C819.579 123.28 821.295 127.44 824.311 130.352C827.431 133.16 831.227 134.564 835.699 134.564C842.355 134.564 846.983 131.756 849.583 126.14H877.975C876.519 131.86 873.867 137.008 870.019 141.584C866.275 146.16 861.543 149.748 855.823 152.348C850.103 154.948 843.707 156.248 836.635 156.248C828.107 156.248 820.515 154.428 813.859 150.788C807.203 147.148 802.003 141.948 798.259 135.188C794.515 128.428 792.643 120.524 792.643 111.476C792.643 102.428 794.463 94.524 798.103 87.764C801.847 81.004 807.047 75.804 813.703 72.164C820.359 68.524 828.003 66.704 836.635 66.704C845.059 66.704 852.547 68.472 859.099 72.008C865.651 75.544 870.747 80.588 874.387 87.14C878.131 93.692 880.003 101.336 880.003 110.072ZM852.703 103.052C852.703 98.476 851.143 94.836 848.023 92.132C844.903 89.428 841.003 88.076 836.323 88.076C831.851 88.076 828.055 89.376 824.935 91.976C821.919 94.576 820.047 98.268 819.319 103.052H852.703ZM932.296 90.104H917.944V155H891.268V90.104H881.596V67.952H891.268V65.456C891.268 54.744 894.336 46.632 900.472 41.12C906.608 35.504 915.604 32.696 927.46 32.696C929.436 32.696 930.892 32.748 931.828 32.852V55.472C926.732 55.16 923.144 55.888 921.064 57.656C918.984 59.424 917.944 62.596 917.944 67.172V67.952H932.296V90.104ZM1033.75 67.952L979.151 196.34H950.447L970.415 152.036L935.003 67.952H964.799L984.923 122.396L1004.89 67.952H1033.75Z" fill="#1C1E45"/>
<defs>
<filter id="filter0_d" x="60.5" y="46.9436" width="133.5" height="142.113" filterUnits="userSpaceOnUse" color-interpolation-filters="sRGB">
<feFlood flood-opacity="0" result="BackgroundImageFix"/>
<feColorMatrix in="SourceAlpha" type="matrix" values="0 0 0 0 0 0 0 0 0 0 0 0 0 0 0 0 0 0 127 0"/>
<feOffset dy="1"/>
<feGaussianBlur stdDeviation="15"/>
<feColorMatrix type="matrix" values="0 0 0 0 0.3375 0 0 0 0 0.3375 0 0 0 0 0.3375 0 0 0 0.2 0"/>
<feBlend mode="normal" in2="BackgroundImageFix" result="effect1_dropShadow"/>
<feBlend mode="normal" in="SourceGraphic" in2="effect1_dropShadow" result="shape"/>
</filter>
<linearGradient id="paint0_linear" x1="118" y1="-71" x2="119.709" y2="288.023" gradientUnits="userSpaceOnUse">
<stop stop-color="#3EC1EB"/>
<stop offset="1" stop-color="#18E3CB"/>
</linearGradient>
</defs>
</svg>
