<svg width="1440" height="1024" viewBox="0 0 1440 1024" fill="none" xmlns="http://www.w3.org/2000/svg">
<path d="M99.1087 850.047C79.3996 776.976 17.5152 702.384 0 678.5V1024H319C290.942 989.606 313.675 947.019 159.192 914.778C128.79 908.433 107.197 880.032 99.1087 850.047Z" fill="#18E3CB" fill-opacity="0.5"/>
<path d="M574.5 1024C485 885 86 920.5 0 852.5V1024H574.5Z" fill="#2E75DE" fill-opacity="0.5"/>
<path d="M623.611 100.974C602.316 73.39 583.042 41.2962 567.5 0H1440V371.5C1315.98 304.158 1206.03 281.035 1055.91 281.589C896.158 282.179 721.231 227.427 623.611 100.974Z" fill="#2E75DE" fill-opacity="0.5"/>
<path d="M1147.87 324.874C1079.65 137.4 857.049 66.3783 636 0H1440V641C1346.86 577.121 1312.83 575.745 1228.98 486.527C1187.3 442.171 1168.68 382.073 1147.87 324.874Z" fill="#18E3CB" fill-opacity="0.5"/>
</svg>
